<svg height="100" viewBox="0 0 100 100" width="100" xmlns="http://www.w3.org/2000/svg"><circle cx="50" cy="51.25" fill="#9d5025" r="30.43"/><circle cx="50" cy="48.75" fill="#f58536" r="30.43"/><g fill="#fff"><path d="m50 71.36-.48-.17a24.08 24.08 0 0 1 -9.27-6.87 33.81 33.81 0 0 1 -6.25-10.74 51.14 51.14 0 0 1 -2.79-17.46v-1.44h1.44c1.3 0 3.72-.43 4.68-1.39a7.32 7.32 0 0 0 1.67-3.97l.07-.93.87-.33a32 32 0 0 1 10.06-1.92 33.81 33.81 0 0 1 10.06 1.91l.89.33.07.94a7.23 7.23 0 0 0 1.63 3.93c.9.9 3.55 1.28 4.69 1.33l1.41.06v1.41a51.37 51.37 0 0 1 -2.75 17.5 33.88 33.88 0 0 1 -6.21 10.76 24.05 24.05 0 0 1 -9.27 6.88zm-15.79-33.88c.22 10.28 3 18.83 8.14 24.78a22.9 22.9 0 0 0 7.65 6 22.87 22.87 0 0 0 7.65-6c5.12-6 7.92-14.54 8.14-24.86-1.54-.21-3.9-.74-5.22-2.05a9.47 9.47 0 0 1 -2.33-4.79 29.88 29.88 0 0 0 -8.24-1.48 28.52 28.52 0 0 0 -8.23 1.45 9.47 9.47 0 0 1 -2.31 4.82 9.38 9.38 0 0 1 -5.25 2.13z"/><path d="m59.07 47.35c-1.8 1.8-7.29 5.63-9.38 7.73v-6h-24.23v-3.59h24.18v-5.91c1.99 1.99 7.48 5.82 9.43 7.77z"/></g></svg>