<svg height="64" viewBox="0 0 128 128" width="64" xmlns="http://www.w3.org/2000/svg" xmlns:xlink="http://www.w3.org/1999/xlink"><linearGradient id="a" gradientUnits="userSpaceOnUse" x1="0" x2="128" y1="128" y2="0"><stop offset="0" stop-color="#333"/><stop offset="1" stop-color="#5d5d5d"/></linearGradient><path d="m36.6875 11.90625c-6.568496 0-11.9375 5.405236-11.9375 11.96875v23.625h-2.09375c-6.568496 0-11.96875 5.400254-11.96875 11.96875v44.65625c0 6.56849 5.400252 11.96875 11.96875 11.96875h44.65625c6.568498 0 11.96875-5.40026 11.96875-11.96875v-5.8125h26.09375c6.56849 0 11.9375-5.405235 11.9375-11.96875v-44.6875c0-6.563515-5.36901-11.96875-11.9375-11.96875h-12.0625v-5.8125c0-6.563514-5.369004-11.96875-11.9375-11.96875zm0 9h44.6875c1.728519 0 2.9375 1.228408 2.9375 2.96875v5.8125h-23.625c-6.568496 0-11.96875 5.400254-11.96875 11.96875v5.84375h-14.96875v-23.625c0-1.740342 1.208981-2.96875 2.9375-2.96875zm24 17.8125h23.625v29.8125c0 1.740342-1.208981 2.96875-2.9375 2.96875h-2.09375v-12.03125c0-6.568496-5.400254-11.96875-11.96875-11.96875h-9.5625v-5.84375c0-1.740342 1.197159-2.9375 2.9375-2.9375zm32.625 0h12.0625c1.74034 0 2.9375 1.197158 2.9375 2.9375v44.6875c0 1.74034-1.19716 2.9375-2.9375 2.9375h-26.09375v-8.78125h2.09375c6.568496 0 11.9375-5.405236 11.9375-11.96875zm-70.65625 17.78125h2.09375v12.03125c0 6.563514 5.369004 11.96875 11.9375 11.96875h12.03125v5.84375c0 6.568496 5.400254 11.96875 11.96875 11.96875h9.5625v5.8125c0 1.74034-1.208982 2.96875-2.9375 2.96875h-44.65625c-1.728518 0-2.96875-1.24023-2.96875-2.96875v-44.65625c0-1.728519 1.240231-2.96875 2.96875-2.96875zm11.09375 0h14.96875v15h-12.03125c-1.728519 0-2.9375-1.228408-2.9375-2.96875zm24 0h9.5625c1.728519 0 2.9375 1.228408 2.9375 2.96875v12.03125h-12.5zm0 24h12.5v8.78125h-9.5625c-1.740341 0-2.9375-1.197159-2.9375-2.9375z" fill="url(#a)"/></svg>